<svg width="154" height="64" fill="none" xmlns="http://www.w3.org/2000/svg"><path d="M59.3 43.2c-.7-.1-1.4 0-2.1.3 0 0-3 2.6-17.9-.4-10.9-2.1-16.6-2-16.6-2s1.9-12.8 1.4-16.4a1 1 0 00-.4-.6 1 1 0 00-.7-.3c-1 0-1.7.4-1.7 1 0 2.5 0 4.9-.3 7.3a6.1 6.1 0 01-2.4 3.1c-1.1.7-2.4 1-3.8 1-4.7-.4-5.7-4-6.1-6.3-.5-2.4-.7-9 .6-11.8 0 0 7.1.2 11.6-3.7 4.5-4 4.3-7.4 2.1-8.8C21 4 16 4.4 12 8c-2.1 2-3.9 4.4-5 7.2 0 0-5.7-1.3-4.4-7.3 1.4-6.3 9.8-5.6 9.8-5.6 1.8.4 1.8.5 2.4 0 .6-.7 1-2.2-1.7-2.3C10.3 0 2 1.3.5 7-1.2 13 1.9 17.1 6 17.8c0 0-2.3 10.4.5 15.5a9 9 0 003.6 3.9c1.5.9 3.3 1.3 5 1.1 1.7 0 4.6-.9 5.4-2.3 0 0-.3 3.7-.7 5 0 0-7 0-9 1-3.8 2-3 6.8-1.6 8.4 1.2 1.5 4.8 2.2 7.4 1a10 10 0 005.6-8c4.2-.2 8.4.3 12.5 1.4a92.2 92.2 0 0017.4 3.7c2.6 0 8-.8 8.3-3 .2-1.4-.3-2.2-1.2-2.4zM16 8.8s3.3-2.5 4.8-1a2.2 2.2 0 01.1 3c-.6.8-2.4 3.6-10.7 5 0 0 2.6-4.7 5.8-7zm.2 40s-4.5 2.5-5-1c-.1-.6 0-1.4.2-2 .3-.7.8-1.3 1.5-1.6.8-.4 1.9-1 6.6-.8a6.6 6.6 0 01-3.3 5.4z" fill="#FBFCFB"/><path d="M73.6 24.4v7c0 1-.3 1.9-.8 2.7l-1.2 1.5c-.5.4-.9-.6-1-1-1.5-3-.8-7-.3-10.2.3-1.5-2.7-1.1-2.9.2a31 31 0 00-.6 8.2 1.8 1.8 0 00-1.3.7c-.5 1.1-2 4.9-3.8 3.4-1.3-1-1.5-3.9-1.6-5.5-.2-2.1 0-4.3.8-6.4 0 .2 1.1-2.9 1.7-1.7a3.8 3.8 0 01-.6 3.2c-1.6 1.2.8 1.7 1.8 1 1.8-1.4 3-6 0-6.4-3.6-.6-5.5 3-6.3 5.8-.4 1.6-.5 3.3-.5 5-.5.9-2 3.7-3 4.1-1.1.6-1.1-.2-1-.7l.7-8.5a6 6 0 00-.5-3.8c-.4-.9-4-2.9-7.1.9-1.8 2-2.9 4.5-3.1 7.2l-.7 1.4c-1.5 2.8-3.4 4-4 2-.8-2-1-4.2-.8-6.3 2.3-3.7 4-7.8 5-12.1C44 9.2 43.8 5.8 43 5.3c-.8-.6-4.2-2-6.3 6.4-1.5 6-2 12.2-1.6 18.4a45 45 0 01-1.2 2.5c-1.5 2.8-3.4 4-4 2a16 16 0 01-.8-6.3c2.4-3.8 4-7.8 5-12.1 1.6-7 1.3-10.4.5-11-.8-.5-4.2-2-6.3 6.5-2 8.4-2.5 17.6-.5 23.7 0 0 1 3.5 3.1 3.3 1.7-.3 3.7-2 4.8-5l.5 1.7s1.1 3.5 3.1 3.3c1.4-.2 3-1.4 4.2-3.6.7 2 2.2 3.5 4.2 3.1 2.7-.5 3.2-2 3.2-2s0 2.5 1.7 2.5c1.5 0 2.7-1 4-3.3l.7-1.5c.3 2.2 1.2 4.2 3 5 3 1.3 5.6-1.2 7.2-3.7a4.5 4.5 0 002.4 2.7 3.7 3.7 0 003.8-1v3.6c-.5 0-1 .2-1.5.5a12 12 0 00-4.2 10.8 3.4 3.4 0 001.6 2.6 3.2 3.2 0 003 0c3.2-1.3 3.6-6.1 4-9 .5-7 0-14.4 0-21.4 0-1.3-2.9-.7-2.9.4zM30.3 12.9c.7-2.7 1.3-3.8 2-3.8.6 0 1 .7.4 3-.8 4.6-2.2 9-4 13.1 0 0 .9-9.6 1.6-12.3zm8.4 0c.7-2.7 1.3-3.8 2-3.8.6 0 .9.7.4 3a63 63 0 01-4 13.1s1-9.6 1.6-12.3zm12.9 12.8c-.1.6-.5 4.4-1 6.4-.6 2.1-1 2.8-2.6 3.5-1.6.8-2.4-1.4-2.4-1.4-1.2-3.3.4-6.2 1.7-8.2 1.3-2 2.5-2.1 3.3-2a1.3 1.3 0 01.8.6 1.4 1.4 0 01.2 1zm22 18.5a19 19 0 01-1.6 8c-.7.1-1-.1-1.3-1.3v-3.3c.4-2 1.3-4 2.8-5.3v1.9zM92.4 21.5a10.8 10.8 0 01-5.7-6.2c-1.3-4 2.9-6.8 6.2-6.6 3.4.1 5.2 3.7 5 6.9 0 1-.7 3.6-2 2.3-1-1-1.5-2.4-1.6-3.7-.2-1.3-3.1-.5-3 .8.7 3.7 4.6 7.9 8 4a7.6 7.6 0 00-2.6-11.6 10 10 0 00-7-.1c-2.4.8-4.3 2.4-5.6 4.5-2.7 5 2.8 9.9 6.7 11.7 6.2 3.4 6.4 14.4-1.9 14.5-1.7 0-3.3-.6-4.7-1.7a8.6 8.6 0 01-3-4c-.5-1.8-.2-7.8 2-8.3 1.9-.4 1.4-2-.4-1.7-3.7.7-5 5.6-4.7 9 .6 5.5 5.6 8.6 10.6 8.6 2.3 0 4.4-.7 6.2-2.1 1.8-1.4 3-3.4 3.5-5.7.3-2.2 0-4.5-1.2-6.4-1-2-2.8-3.4-4.8-4.2z" fill="#FBFCFB"/><path d="M111 37.8c-2.9-1.6-1.2-7.8-.8-10.2.3-1.5 1.5-3.8-.5-4.4-2.4-.6-5.2 1.8-7.3 4 0-2.6.2-5.1.6-7.7 3.1-1.6 5.7-4.3 7.1-7.6 1.3-2.7 2-8.2-2.4-6.6-4 1.5-5.4 6.2-6.6 10-.5 1.4-.9 3-1.1 4.5l-1.3.4c-1.6.6-1.4 1.5.3 1l.8-.3c-.8 5.7-.3 11.8.2 17.4 0 .6 3 0 3-.8-.3-2.5-.5-5-.5-7.5l.6-.4a22.9 22.9 0 014-4l.4-.4c.7-.6.8-.6.4 0-.1 1-.3 2-.6 2.9-.5 3-2.1 9.1 1.3 11 .8.5 3.5-.7 2.4-1.3zM104.5 13l1-2.7c.6-1 1.8-4.9 2.7-3 .8 1.4-.4 3.8-1 5.2-.7 2.1-2.1 4-4 5.4l1.3-4.9z" fill="#FBFCFB"/><path d="M121.7 30.6c0-3.4-.3-7.7-4.3-8-4.3-.5-6 4.2-6 7.6v.4l.3.2c0 3.2.8 7.5 4.5 7.4 4.2 0 5.5-3.8 5.5-7.6zm-5 5.6c-2.4-1-2.2-5.3-2-7.4v-.3l-.3-.3c.3-2 1.1-5 2.9-3.6 1.4 1.3 1.4 4.3 1.5 6 0 1.3 0 6.4-2 5.6zM153.3 49.1c-1.2-3-3.6-4-6.3-4.2-.3-.7-.7-1.5-1.2-2.1-3.9-6-13.2-5.2-19.5-2v-2.9a7.2 7.2 0 006.4-3c1.7-2.5 1.5-6.9.8-9.6-.6-2.6-3-2.2-5-1.3-.6.3-1.2.8-1.8 1.3l.2-2c0-1.6-2.9-1.2-3 .2-.4 6.3-.3 12.7-.4 19a15.1 15.1 0 00-5.4 12.4c0 2.4 2 4.1 4 2.5 2.9-2.3 3.8-6.8 4.2-10.3.1-1.5.2-3.1.1-4.7a13.8 13.8 0 0115.3 0 7 7 0 012.2 2.7 18 18 0 00-4.6 1.5c-1.7.9-4.3 2.9-4.1 5.1 0 .7.2 1.4.6 2 .4.5 1 1 1.7 1l.3.2c6.1 1 10.7-2.7 9.8-8 3 1.7 4.1 5.6 3 9-2.3 7.4-11.6 9-17 4-.5-.5-3.1.7-2.7 1.1 7.8 7.3 27 .5 22.4-11.9zm-30-1.8a16.3 16.3 0 01-2 7s-.2 0-.3-.8c0-2.9.8-5.7 2.4-8.1l-.1 2zm3.1-18.3l.2-.2a14.4 14.4 0 013.7-4.1c.3.1.6 1 .8 2.1.3 2.9.4 10.4-4 9.7-.3 0-.7 0-1 .2 0-2.6.2-5.2.3-7.7zm13.1 24.4c-1.7-.4-1.5-2-1.3-3.2.5-2.6 3.6-4 6.1-4.1 1.3 3.7.3 8.1-4.8 7.3z" fill="#FBFCFB"/></svg>