<svg width="49" height="49" fill="none" xmlns="http://www.w3.org/2000/svg"><circle cx="24.5" cy="24.5" r="23.5" stroke="#323232" stroke-width="2"/><path d="M27.6 15.1c0-1-.4-2.1-1.2-2.9a4 4 0 00-5.6 0c-.8.8-1.2 1.8-1.2 3v12c-1 1-1.6 2.4-1.6 4a6 6 0 002.5 4.8 5.6 5.6 0 007.6-1.2 6 6 0 00-.5-7.9V15.1zm.1 16a4.3 4.3 0 01-1.9 3.6 4 4 0 01-5.5-1.1 4.3 4.3 0 01.9-5.7V15c0-.6.2-1.3.7-1.7a2.4 2.4 0 013.4 0c.4.4.7 1 .7 1.7v12.6a4.1 4.1 0 011.7 3.4z" fill="#323232"/><path d="M24.5 28.6V15.2l-.3-.6a.8.8 0 00-1.1 0l-.2.6v13.4c-.6.2-1 .6-1.3 1a2.5 2.5 0 00.5 3.2 2.3 2.3 0 003.1 0c.4-.4.7-1 .8-1.5.1-.6 0-1.1-.3-1.6s-.7-1-1.2-1.1zM34 14.2h-4.8v1.6H34v-1.6zM34 17.5h-4.8V19H34v-1.6zM34 20.8h-4.8v1.6H34v-1.6zM34 24h-4.8v1.7H34V24z" fill="#323232"/></svg>